<svg xmlns="http://www.w3.org/2000/svg" xmlns:xlink="http://www.w3.org/1999/xlink" width="1920" height="329"><defs/><defs><filter id="a" width="103.6%" height="124.2%" x="-1.3%" y="-15.6%" filterUnits="objectBoundingBox"><feOffset dx="10" dy="-10" in="SourceAlpha" result="shadowOffsetOuter1"/><feGaussianBlur in="shadowOffsetOuter1" result="shadowBlurOuter1" stdDeviation="10"/><feColorMatrix in="shadowBlurOuter1" values="0 0 0 0 0 0 0 0 0 0 0 0 0 0 0 0 0 0 0.05 0"/></filter><path id="b" d="M321.61 786h.585c37.623 0 70.64 14.678 99.052 44.036C446.416 858.746 459 891.4 459 928c0 40.091-14.854 75.074-44.564 104.948-27.634 24.701-58.38 37.052-92.241 37.052-33.991 0-64.608-12.092-91.853-36.276-12.065-12.415-19.85-21.985-23.352-28.71-14.66-23.667-21.99-49.273-21.99-76.82v-.776c0-40.091 15.05-75.138 45.148-105.142l13.038-10.67c24.26-17.07 50.402-25.606 78.425-25.606zM222 927.5c0 30.633 11.683 57.194 35.049 79.684 19.212 16.544 40.825 24.816 64.84 24.816 31.155 0 57.442-13.7 78.86-41.102C414.25 971.252 421 950.701 421 929.245v-2.52c0-26.497-9.281-50.409-27.844-71.735-20.77-21.327-44.525-31.99-71.267-31.99-29.986 0-55.688 12.731-77.107 38.194C229.594 881.616 222 903.718 222 927.5zM586.346 1070h-1.752c-33.472 0-57.474-12.62-72.004-37.86-5.06-9.967-7.59-21.68-7.59-35.142V884.582l.584-.582h36.391l.584.582v112.804c0 15.921 6.617 26.405 19.85 31.453 5.579 2.46 12.714 3.69 21.407 3.69h3.114c15.828 0 27.05-2.46 33.667-7.379 8.692-5.177 13.038-14.755 13.038-28.735V884.582l.39-.582h36.586l.389.582v183.865l-.39.582h-36.585l-.39-.582v-12.426h-.389c-6.616 4.918-15.244 8.931-25.883 12.037-5.708 1.295-12.714 1.942-21.017 1.942zm224.932-187h4.86c12.834 0 26.121 3.754 39.862 11.263v.194c-5.444 24.597-8.426 37.478-8.944 38.643-12.445-8.156-23.463-12.234-33.056-12.234h-3.111c-12.445 0-23.398 4.596-32.861 13.787-7.13 8.674-10.695 25.115-10.695 49.323v85.441l-.389.583h-36.36l-.584-.583v-182.34l.583-.387h36.361l.39.388v13.981C781.592 889.02 796.24 883 811.277 883zm261.575-2h.388c19.392 0 37.49 5.967 54.296 17.902 3.102 2.335 6.593 5.383 10.47 9.145 4.784 4.93 7.951 8.627 9.503 11.091 1.939 2.595 2.908 4.022 2.908 4.281l-31.026 20.626h-.194c-1.422-2.335-3.942-5.383-7.562-9.145-11.376-10.897-24.304-16.345-38.783-16.345-13.832 0-26.372 5.059-37.619 15.177-4.136 4.151-6.657 7.135-7.562 8.951-7.498 10.637-11.247 22.442-11.247 35.414 0 14.01 4.46 26.788 13.38 38.333 2.844 3.373 5.817 6.357 8.92 8.951 10.342 8.043 21.783 12.064 34.322 12.064 11.377 0 21.977-3.502 31.802-10.507 2.198-1.427 5.236-4.086 9.114-7.978 2.197-2.595 4.072-5.124 5.623-7.589h.194l31.22 20.626c-2.198 3.503-5.171 7.394-8.92 11.675-4.395 4.8-7.498 7.848-9.308 9.145-4.266 3.503-7.95 6.227-11.053 8.173-15.383 9.34-31.349 14.01-47.896 14.01h-1.745c-17.71 0-34.581-5.254-50.611-15.761a183.185 183.185 0 01-8.532-6.422c-4.784-4.41-8.339-8.042-10.666-10.896-5.17-6.357-8.855-11.675-11.053-15.956-2.456-4.151-4.847-9.664-7.174-16.54-3.361-10.507-5.042-20.431-5.042-29.771v-3.113c0-14.53 3.555-29.123 10.665-43.782 2.198-4.021 4.719-8.172 7.563-12.453 2.197-2.984 5.494-6.875 9.89-11.675 5.17-4.93 9.63-8.692 13.38-11.286 16.159-10.897 33.61-16.345 52.355-16.345zm121.339-95h36.616l.192.194v283.612l-.192.194h-36.616l-.192-.194V786.194l.192-.194zM1330 884v185.806l-.196.194h-37.608l-.196-.194V884h38zm-20.278-98h1.556c5.704 0 11.083 2.204 16.139 6.611 5.055 5.185 7.583 10.954 7.583 17.306v1.166c0 5.834-2.204 11.278-6.611 16.334-5.185 5.055-10.954 7.583-17.306 7.583h-1.166c-5.963 0-11.408-2.268-16.334-6.806-2.722-2.851-4.537-5.38-5.444-7.583-1.426-3.24-2.139-6.352-2.139-9.333v-1.556c0-5.963 2.398-11.537 7.194-16.722l2.917-2.528c4.537-2.981 9.074-4.472 13.611-4.472zM1416 954h94v-.192c-2.197-6.539-7.236-13.975-15.118-22.308-9.82-8.333-20.544-12.5-32.173-12.5-17.702 0-32.237 9.295-43.608 27.885L1416 954zm44.091-73h5.624c18.873 0 37.034 7.589 54.485 22.766 8.532 8.432 14.414 15.697 17.645 21.794 9.437 16.734 14.155 34.246 14.155 52.537v5.838c0 3.632-.259 5.448-.776 5.448h-138.832c2.973 13.88 7.885 24.258 14.737 31.134 10.47 11.285 22.363 16.928 35.677 16.928 16.805 0 30.895-8.496 42.27-25.49 2.198-4.281 3.49-6.486 3.878-6.616 22.234 10.118 33.48 15.307 33.739 15.567-1.81 4.54-5.882 11.35-12.216 20.431-19.002 22.442-41.43 33.663-67.283 33.663h-.776c-26.629 0-49.509-11.87-68.64-35.609-13.185-18.55-19.778-38.852-19.778-60.905v-.778c0-30.355 11.57-56.04 34.708-77.055C1425.771 887.551 1442.9 881 1460.091 881zm222.563 3h1.752c33.472 0 57.474 12.62 72.004 37.86 5.06 9.967 7.59 21.68 7.59 35.142v112.416l-.39.582h-36.585l-.39-.582V956.614c0-15.921-6.681-26.405-20.044-31.453-5.579-2.46-12.714-3.69-21.407-3.69h-3.114c-15.828 0-27.05 2.46-33.667 7.379-8.562 5.177-12.844 14.755-12.844 28.735v111.833l-.584.582h-36.391l-.584-.582V885.553l.584-.582h36.391l.584.582v10.485h.195c6.616-3.625 15.309-6.99 26.077-10.096 5.579-1.295 12.52-1.942 20.823-1.942zm144.068-98h37.221l.194.194v97.77h48.078l.194.194v37.246l-.194.194h-48.078v93.697c0 7.242 2.456 12.092 7.367 14.55 3.36 1.81 6.85 2.715 10.469 2.715 5.04 0 12.213-1.681 21.518-5.044l1.551-.776 13.958 35.112c-3.102 1.294-8.142 2.975-15.121 5.044-8.272 2.07-15.509 3.104-21.713 3.104h-.387c-12.278 0-23.78-3.75-34.508-11.251-1.809-1.294-4.2-3.363-7.172-6.208l-3.296-4.268c-2.068-2.716-3.683-5.367-4.847-7.953-3.49-7.89-5.234-15.778-5.234-23.667v-95.055h-27.528l-.194-.194v-37.246l.194-.194h27.528V786zm202.428 88c23.685 0 43.81 7.358 60.377 22.075 3.754 3.615 6.407 6.455 7.96 8.52l2.33 3.68c-.259.387-3.753 2.581-10.484 6.583-6.6 4.002-13.654 8.456-21.16 13.362-2.33-2.84-4.66-5.1-6.99-6.778-8.671-6.584-19.22-9.876-31.645-9.876h-.776c-13.59 0-24.462 3.228-32.615 9.683-4.53 3.872-6.795 8.068-6.795 12.586 0 2.84 1.23 5.035 3.688 6.584 2.46 2.066 7.248 4.325 14.367 6.778 9.836 3.227 25.108 6.648 45.816 10.263 6.73 1.549 12.49 3.356 17.279 5.422 4.53 1.807 9.06 4.26 13.59 7.358 2.07 1.42 4.982 4.002 8.736 7.746 9.448 10.327 14.172 21.946 14.172 34.855v.581c0 13.168-4.918 25.496-14.755 36.986-4.141 4.26-7.118 6.906-8.93 7.939-5.177 3.614-9.448 6.132-12.813 7.552-13.202 6.067-27.244 9.101-42.128 9.101h-1.36c-19.413 0-37.145-5.1-53.193-15.298-3.495-2.323-7.248-5.357-11.26-9.1-3.754-3.616-6.342-6.456-7.766-8.521a72.366 72.366 0 01-6.795-10.07l32.421-18.589h.194l1.553 2.711c1.424 2.195 3.69 4.776 6.795 7.746 5.825 5.422 13.072 9.294 21.744 11.618 5.695 1.291 11.39 1.937 17.084 1.937 11.39 0 21.55-2.518 30.48-7.553 1.683-.903 3.753-2.517 6.213-4.84 3.365-4.002 5.047-8.004 5.047-12.006 0-7.1-5.5-12.716-16.502-16.847-3.624-1.291-10.289-2.711-19.996-4.26-20.838-4.002-36.369-8.198-46.593-12.587-4.4-1.807-8.737-4.131-13.008-6.971-9.836-6.326-16.307-14.394-19.414-24.205-1.553-4.39-2.33-9.037-2.33-13.942v-1.162c0-12.264 4.595-23.754 13.785-34.469 3.882-4.001 6.665-6.583 8.348-7.745 4.4-3.228 8.542-5.81 12.424-7.746 12.943-6.067 27.245-9.101 42.905-9.101z"/></defs><g fill="none" fill-rule="evenodd" transform="translate(-185 -756)"><use fill="#000" filter="url(#a)" xlink:href="#b"/><use fill="#F5F5F5" xlink:href="#b"/></g></svg>